# 3ds Max Wavefront OBJ Exporter v0.97b - (c)2007 guruware
# File Created: 03.07.2018 18:24:21

mtllib Shirt Pocket Left Slim Tuck In Flap.mtl

#
# object Object1170
#

v  66.4081 1465.7297 120.1898
v  73.6901 1457.1318 119.7741
v  75.2423 1465.4188 118.2988
v  65.1468 1457.0049 121.4840
v  68.8046 1450.2404 121.2869
v  59.8430 1451.6812 122.8008
v  91.8837 1453.3578 113.0103
v  82.6507 1452.0603 116.9278
v  85.9721 1446.4048 115.2738
v  78.8540 1459.9609 118.0035
v  57.2265 1471.1552 120.0741
v  58.8860 1461.4956 121.9338
v  99.6339 1448.0505 107.7455
v  101.7033 1441.2693 106.1071
v  101.2729 1446.9543 106.7867
v  93.9863 1443.9805 110.8543
v  99.8642 1451.9692 108.0459
v  98.9935 1450.1167 108.3434
v  103.0689 1447.7510 105.9596
v  84.7539 1458.0592 116.1453
v  86.6271 1466.3214 114.9291
v  94.0802 1461.4437 112.4151
v  99.9383 1475.8329 106.7904
v  101.1323 1467.9387 108.1530
v  107.0066 1474.6730 103.5855
v  54.7787 1480.3665 116.6200
v  62.5901 1475.0968 118.0267
v  69.9181 1473.2654 117.4361
v  74.7661 1481.3765 113.2906
v  79.2934 1472.9158 115.3375
v  77.5577 1448.4841 118.7080
v  95.7100 1467.3022 111.1189
v  91.3374 1472.4290 111.6985
v  99.7393 1459.3152 109.0406
v  117.9910 1446.5411 98.9488
v  125.3581 1448.5702 94.0998
v  120.1553 1455.4966 98.1050
v  103.3321 1451.7001 106.2808
v  104.0249 1449.6985 105.7474
v  109.9923 1444.1235 102.7668
v  115.7226 1452.0663 100.6833
v  101.6567 1452.7231 107.2392
v  110.2607 1450.9236 103.3675
v  127.3006 1457.5466 92.6303
v  132.3265 1450.4969 88.6453
v  134.3806 1457.4237 86.5663
v  134.8315 1467.2430 84.6830
v  130.6662 1461.6100 89.5074
v  111.5081 1457.7369 103.5606
v  117.9887 1464.6240 99.3177
v  122.7315 1461.0720 96.0735
v  138.9988 1452.4884 82.7787
v  94.0858 1481.7537 107.3029
v  84.4986 1481.5500 110.4757
v  90.1169 1478.3296 110.0492
v  105.4527 1461.4081 106.5405
v  109.8233 1467.2979 103.8901
v  112.0711 1481.7499 97.6406
v  117.7973 1474.0149 97.1664
v  120.5864 1481.8285 92.1712
v  64.8096 1481.0472 115.3357
v  124.2624 1468.2050 93.9827
v  132.8775 1476.9285 83.7203
v  135.9049 1481.6757 79.3257
v  128.3734 1481.7253 85.8067
v  125.6490 1475.0277 90.7903
v  130.0886 1467.8004 88.9661
v  138.2549 1462.3370 82.3619
v  137.2354 1472.0811 81.2683
v  80.4434 1478.2335 113.0588
v  103.2802 1481.5372 102.7380
v  112.6706 1472.5005 100.9946
v  66.2384 1465.5325 119.2243
v  75.0041 1465.2257 117.3469
v  73.4398 1457.0596 118.8086
v  68.5807 1450.1925 120.3134
v  64.9725 1456.9067 120.5042
v  59.6833 1451.5969 121.8172
v  91.4314 1453.4205 112.1206
v  85.5571 1446.4741 114.3666
v  82.3005 1452.0681 115.9911
v  78.5590 1459.8867 117.0509
v  57.1104 1470.8754 119.1211
v  58.7517 1461.3452 120.9543
v  99.1498 1448.1284 106.8740
v  100.8192 1447.0400 105.8997
v  101.2510 1441.3286 105.2172
v  93.4900 1444.0605 109.9899
v  99.3882 1452.0654 107.1718
v  98.4844 1450.2061 107.4874
v  102.6480 1447.8345 105.0563
v  86.3130 1466.1635 113.9930
v  84.3986 1458.0426 115.2107
v  93.6453 1461.4503 111.5146
v  99.5262 1475.5502 105.9242
v  106.5491 1474.3937 102.7413
v  100.6905 1467.8064 107.2657
v  54.6917 1479.9910 115.6972
v  62.4632 1474.7648 117.0920
v  69.7261 1472.9583 116.5039
v  74.5571 1481.0220 112.3792
v  79.0416 1472.6289 114.4132
v  77.2424 1448.4866 117.7590
v  95.2808 1467.1570 110.2275
v  91.0080 1472.1482 110.7970
v  99.2789 1459.3484 108.1536
v  117.4731 1446.6085 98.0961
v  119.5904 1455.5093 97.2799
v  124.7623 1448.5914 93.2969
v  102.9184 1451.8046 105.3764
v  103.6343 1449.7976 104.8322
v  109.5781 1444.2092 101.8607
v  115.2401 1452.1442 99.8110
v  101.2156 1452.8384 106.3493
v  109.8517 1451.0239 102.4605
v  126.6742 1457.5271 91.8509
v  133.7149 1457.3558 85.8231
v  131.6874 1450.4779 87.8764
v  130.0120 1461.5150 88.7571
v  134.1594 1467.0902 83.9585
v  111.0375 1457.7594 102.6785
v  117.4393 1464.5164 98.4892
v  122.1168 1461.0083 95.2873
v  138.3294 1452.4305 82.0380
v  93.7143 1481.4187 106.4370
v  89.7966 1478.0037 109.1597
v  84.2293 1481.1753 109.5885
v  105.0274 1461.4308 105.6358
v  109.3454 1467.1736 103.0205
v  111.5791 1481.4171 96.8360
v  120.0224 1481.5245 91.4035
v  117.2450 1473.7520 96.3753
v  64.6633 1480.6801 114.4171
v  123.6470 1468.0416 93.2116
v  132.2284 1476.6934 82.9969
v  127.7524 1481.4387 85.0772
v  135.2592 1481.4210 78.6058
v  125.0300 1474.7721 90.0476
v  129.4303 1467.6139 88.2369
v  137.5752 1462.2260 81.6369
v  136.5696 1471.8811 80.5495
v  80.1752 1477.8951 112.1567
v  102.8380 1481.1906 101.9107
v  112.1587 1472.2490 100.1732
# 144 vertices

vn 0.1701 0.1973 0.9655
vn 0.2529 0.0713 0.9649
vn 0.2375 0.1844 0.9537
vn 0.1728 0.0970 0.9802
vn 0.2215 0.0499 0.9739
vn 0.1604 0.0834 0.9835
vn 0.4540 -0.0630 0.8888
vn 0.3541 -0.0154 0.9351
vn 0.4095 -0.0639 0.9101
vn 0.2918 0.0767 0.9534
vn 0.1169 0.2925 0.9491
vn 0.1360 0.1483 0.9796
vn 0.5098 -0.0690 0.8575
vn 0.4488 -0.0604 0.8916
vn 0.4574 -0.0713 0.8864
vn 0.4986 -0.0787 0.8633
vn 0.4570 -0.0991 0.8839
vn 0.4974 -0.0953 0.8623
vn 0.4600 -0.0955 0.8828
vn 0.5189 -0.0900 0.8501
vn 0.4422 -0.0989 0.8915
vn 0.3466 0.0206 0.9378
vn 0.3185 0.1605 0.9342
vn 0.4431 0.0123 0.8964
vn 0.4870 -0.1024 0.8674
vn 0.4184 0.2858 0.8622
vn 0.4458 0.1305 0.8856
vn 0.4586 0.2796 0.8435
vn 0.0870 0.3753 0.9228
vn 0.1275 0.3373 0.9327
vn 0.1877 0.3038 0.9341
vn 0.2125 0.3552 0.9103
vn 0.2508 0.2897 0.9237
vn 0.3189 -0.0013 0.9478
vn 0.4311 0.1387 0.8916
vn 0.3439 0.2710 0.8990
vn 0.4583 -0.0566 0.8870
vn 0.5075 -0.0708 0.8587
vn 0.5959 -0.0212 0.8027
vn 0.5651 -0.0127 0.8249
vn 0.4522 -0.0991 0.8864
vn 0.4384 -0.1024 0.8929
vn 0.3753 -0.1016 0.9213
vn 0.4002 -0.0744 0.9134
vn 0.4107 -0.0866 0.9076
vn 0.4946 -0.0697 0.8663
vn 0.4072 -0.1010 0.9077
vn 0.4402 -0.1123 0.8908
vn 0.4134 -0.0994 0.9051
vn 0.6278 0.0300 0.7778
vn 0.6408 0.0210 0.7674
vn 0.6664 0.0660 0.7427
vn 0.6751 0.1566 0.7209
vn 0.6589 0.0890 0.7470
vn 0.4634 -0.0316 0.8856
vn 0.5550 0.1051 0.8252
vn 0.6084 0.0546 0.7917
vn 0.6686 0.0567 0.7414
vn 0.3652 0.3216 0.8736
vn 0.2709 0.3686 0.8893
vn 0.3112 0.3346 0.8895
vn 0.4261 -0.0088 0.9046
vn 0.3978 -0.1117 0.9107
vn 0.4787 0.1343 0.8676
vn 0.4931 0.3321 0.8041
vn 0.5475 0.2627 0.7945
vn 0.5669 0.3020 0.7664
vn 0.1420 0.3677 0.9190
vn 0.6163 0.1677 0.7694
vn 0.6466 0.2434 0.7229
vn 0.6458 0.2545 0.7198
vn 0.6237 0.2847 0.7280
vn 0.6189 0.2549 0.7429
vn 0.6599 0.1696 0.7319
vn 0.6754 0.1122 0.7288
vn 0.6590 0.2003 0.7250
vn 0.2559 0.3512 0.9006
vn 0.4423 0.3460 0.8274
vn 0.5093 0.2489 0.8238
vn 0.4468 -0.1126 0.8875
vn -0.1701 -0.1972 -0.9655
vn -0.2376 -0.1844 -0.9537
vn -0.2530 -0.0712 -0.9649
vn -0.2214 -0.0499 -0.9739
vn -0.1727 -0.0969 -0.9802
vn -0.1604 -0.0834 -0.9835
vn -0.4540 0.0630 -0.8888
vn -0.4095 0.0640 -0.9100
vn -0.3541 0.0154 -0.9351
vn -0.2918 -0.0767 -0.9534
vn -0.1167 -0.2927 -0.9490
vn -0.1359 -0.1481 -0.9796
vn -0.5095 0.0688 -0.8577
vn -0.4573 0.0714 -0.8864
vn -0.4488 0.0603 -0.8916
vn -0.4985 0.0787 -0.8633
vn -0.4573 0.0989 -0.8838
vn -0.4602 0.0956 -0.8827
vn -0.4973 0.0953 -0.8624
vn -0.5190 0.0902 -0.8500
vn -0.4420 0.0991 -0.8915
vn -0.3183 -0.1607 -0.9343
vn -0.3464 -0.0205 -0.9379
vn -0.4430 -0.0123 -0.8965
vn -0.4872 0.1029 -0.8672
vn -0.4184 -0.2860 -0.8621
vn -0.4586 -0.2798 -0.8435
vn -0.4456 -0.1305 -0.8857
vn -0.0870 -0.3756 -0.9227
vn -0.1276 -0.3374 -0.9327
vn -0.1877 -0.3039 -0.9340
vn -0.2125 -0.3553 -0.9103
vn -0.2507 -0.2899 -0.9236
vn -0.3190 0.0015 -0.9478
vn -0.4313 -0.1387 -0.8915
vn -0.3439 -0.2711 -0.8990
vn -0.4586 0.0570 -0.8868
vn -0.5073 0.0708 -0.8588
vn -0.5653 0.0129 -0.8248
vn -0.5960 0.0212 -0.8027
vn -0.4521 0.0999 -0.8863
vn -0.4383 0.1023 -0.8930
vn -0.3754 0.1016 -0.9213
vn -0.4107 0.0865 -0.9077
vn -0.4004 0.0741 -0.9133
vn -0.4948 0.0697 -0.8662
vn -0.4072 0.1009 -0.9077
vn -0.4401 0.1122 -0.8909
vn -0.4136 0.0997 -0.9050
vn -0.6278 -0.0301 -0.7778
vn -0.6664 -0.0660 -0.7427
vn -0.6408 -0.0209 -0.7674
vn -0.6589 -0.0888 -0.7469
vn -0.6750 -0.1567 -0.7210
vn -0.4632 0.0319 -0.8857
vn -0.5551 -0.1050 -0.8251
vn -0.6085 -0.0544 -0.7917
vn -0.6686 -0.0567 -0.7414
vn -0.3651 -0.3216 -0.8736
vn -0.3111 -0.3346 -0.8895
vn -0.2707 -0.3687 -0.8893
vn -0.4263 0.0088 -0.9045
vn -0.3976 0.1122 -0.9107
vn -0.4787 -0.1345 -0.8676
vn -0.4930 -0.3324 -0.8040
vn -0.5669 -0.3021 -0.7663
vn -0.5474 -0.2629 -0.7945
vn -0.1420 -0.3678 -0.9190
vn -0.6164 -0.1677 -0.7694
vn -0.6466 -0.2435 -0.7230
vn -0.6237 -0.2848 -0.7280
vn -0.6458 -0.2545 -0.7198
vn -0.6190 -0.2549 -0.7429
vn -0.6600 -0.1694 -0.7319
vn -0.6755 -0.1122 -0.7288
vn -0.6591 -0.2003 -0.7249
vn -0.2559 -0.3514 -0.9006
vn -0.4423 -0.3463 -0.8273
vn -0.5093 -0.2491 -0.8238
vn -0.4471 0.1129 -0.8873
vn -0.9665 -0.1927 0.1699
vn -0.9665 -0.1928 0.1696
vn -0.9721 -0.1649 0.1667
vn -0.9722 -0.1644 0.1666
vn -0.9823 -0.1098 0.1516
vn -0.9823 -0.1096 0.1521
vn -0.9829 -0.0811 0.1653
vn -0.9827 -0.0811 0.1665
vn -0.1379 -0.9849 0.1049
vn -0.1374 -0.9848 0.1066
vn -0.1561 -0.9841 0.0852
vn -0.1566 -0.9841 0.0832
vn -0.1942 -0.9789 0.0631
vn -0.1951 -0.9789 0.0608
vn -0.2467 -0.9683 0.0404
vn -0.2471 -0.9682 0.0395
vn -0.2738 -0.9594 0.0678
vn -0.2738 -0.9594 0.0685
vn -0.2856 -0.9549 0.0811
vn -0.2854 -0.9549 0.0814
vn 0.2509 -0.9489 -0.1917
vn 0.2513 -0.9489 -0.1910
vn 0.2249 -0.9551 -0.1927
vn 0.2247 -0.9550 -0.1936
vn 0.1755 -0.9674 -0.1825
vn 0.1754 -0.9675 -0.1820
vn 0.1618 -0.9758 -0.1469
vn 0.1629 -0.9759 -0.1455
vn 0.1759 -0.9766 -0.1233
vn 0.1774 -0.9766 -0.1219
vn 0.1979 -0.9745 -0.1054
vn 0.1993 -0.9744 -0.1040
vn 0.7396 0.0293 -0.6724
vn 0.7404 0.0295 -0.6715
vn 0.7289 0.0125 -0.6845
vn 0.7287 0.0125 -0.6848
vn 0.7359 -0.0177 -0.6769
vn 0.7364 -0.0176 -0.6764
vn 0.7486 -0.0304 -0.6623
vn 0.7493 -0.0300 -0.6615
vn -0.1662 0.9665 -0.1958
vn -0.1650 0.9670 -0.1941
vn -0.1787 0.9583 -0.2230
vn -0.1796 0.9578 -0.2242
vn -0.1786 0.9528 -0.2453
vn -0.1793 0.9524 -0.2466
vn -0.1852 0.9432 -0.2757
vn -0.1858 0.9428 -0.2769
vn -0.1633 0.9382 -0.3053
vn -0.1633 0.9381 -0.3054
vn -0.1291 0.9421 -0.3095
vn -0.1293 0.9418 -0.3105
vn -0.1262 0.9275 -0.3519
vn -0.1264 0.9272 -0.3526
vn -0.1084 0.9344 -0.3393
vn -0.1083 0.9345 -0.3392
vn -0.1066 0.9292 -0.3539
vn -0.1066 0.9289 -0.3548
vn -0.1096 0.9245 -0.3650
vn -0.1096 0.9242 -0.3658
# 220 vertex normals

vt 0.5203 0.9401 0.0000
vt 0.5222 0.9379 0.0000
vt 0.5227 0.9402 0.0000
vt 0.5199 0.9377 0.0000
vt 0.5209 0.9359 0.0000
vt 0.5184 0.9363 0.0000
vt 0.5274 0.9373 0.0000
vt 0.5248 0.9367 0.0000
vt 0.5258 0.9352 0.0000
vt 0.5237 0.9387 0.0000
vt 0.5179 0.9416 0.0000
vt 0.5182 0.9390 0.0000
vt 0.5300 0.9363 0.0000
vt 0.5308 0.9346 0.0000
vt 0.5305 0.9361 0.0000
vt 0.5283 0.9349 0.0000
vt 0.5300 0.9374 0.0000
vt 0.5297 0.9368 0.0000
vt 0.5310 0.9363 0.0000
vt 0.5253 0.9384 0.0000
vt 0.5259 0.9407 0.0000
vt 0.5280 0.9396 0.0000
vt 0.5300 0.9437 0.0000
vt 0.5302 0.9416 0.0000
vt 0.5321 0.9435 0.0000
vt 0.5177 0.9443 0.0000
vt 0.5196 0.9428 0.0000
vt 0.5215 0.9423 0.0000
vt 0.5231 0.9448 0.0000
vt 0.5240 0.9424 0.0000
vt 0.5233 0.9356 0.0000
vt 0.5285 0.9412 0.0000
vt 0.5274 0.9425 0.0000
vt 0.5298 0.9393 0.0000
vt 0.5356 0.9360 0.0000
vt 0.5380 0.9368 0.0000
vt 0.5361 0.9385 0.0000
vt 0.5310 0.9374 0.0000
vt 0.5313 0.9368 0.0000
vt 0.5332 0.9353 0.0000
vt 0.5348 0.9375 0.0000
vt 0.5305 0.9376 0.0000
vt 0.5331 0.9371 0.0000
vt 0.5385 0.9393 0.0000
vt 0.5404 0.9375 0.0000
vt 0.5411 0.9395 0.0000
vt 0.5413 0.9422 0.0000
vt 0.5397 0.9405 0.0000
vt 0.5333 0.9390 0.0000
vt 0.5354 0.9409 0.0000
vt 0.5369 0.9401 0.0000
vt 0.5427 0.9383 0.0000
vt 0.5286 0.9452 0.0000
vt 0.5258 0.9450 0.0000
vt 0.5273 0.9441 0.0000
vt 0.5315 0.9399 0.0000
vt 0.5328 0.9415 0.0000
vt 0.5340 0.9456 0.0000
vt 0.5355 0.9435 0.0000
vt 0.5367 0.9459 0.0000
vt 0.5204 0.9445 0.0000
vt 0.5375 0.9421 0.0000
vt 0.5408 0.9449 0.0000
vt 0.5421 0.9463 0.0000
vt 0.5394 0.9461 0.0000
vt 0.5382 0.9441 0.0000
vt 0.5396 0.9422 0.0000
vt 0.5425 0.9409 0.0000
vt 0.5423 0.9436 0.0000
vt 0.5246 0.9439 0.0000
vt 0.5313 0.9454 0.0000
vt 0.5338 0.9430 0.0000
# 72 texture coords

g Object1170
usemtl Material26797
s 1
f 1/1/1 2/2/2 3/3/3 
f 2/2/2 4/4/4 5/5/5 
f 4/4/4 6/6/6 5/5/5 
f 7/7/7 8/8/8 9/9/9 
f 10/10/10 3/3/3 2/2/2 
f 11/11/11 12/12/12 1/1/1 
f 13/13/13 14/14/14 15/15/15 
f 14/14/14 13/13/13 16/16/16 
f 17/17/17 18/18/18 13/13/19 
f 13/13/13 18/18/20 16/16/16 
f 17/17/17 13/13/19 19/19/21 
f 18/18/20 7/7/7 16/16/16 
f 10/10/10 20/20/22 21/21/23 
f 22/22/24 7/7/7 17/17/25 
f 4/4/4 1/1/1 12/12/12 
f 23/23/26 24/24/27 25/25/28 
f 4/4/4 2/2/2 1/1/1 
f 26/26/29 11/11/11 27/27/30 
f 28/28/31 27/27/30 1/1/1 
f 3/3/3 10/10/10 21/21/23 
f 29/29/32 28/28/31 30/30/33 
f 6/6/6 4/4/4 12/12/12 
f 5/5/5 31/31/34 2/2/2 
f 32/32/35 23/23/26 33/33/36 
f 22/22/24 17/17/25 34/34/37 
f 8/8/8 10/10/10 2/2/2 
f 21/21/23 22/22/24 32/32/35 
f 35/35/38 36/36/39 37/37/40 
f 19/19/21 13/13/19 15/15/41 
f 10/10/10 8/8/8 20/20/22 
f 19/19/21 38/38/42 17/17/17 
f 39/39/43 19/19/44 40/40/45 
f 35/35/38 37/37/40 41/41/46 
f 39/39/47 38/38/42 19/19/21 
f 19/19/44 14/14/14 40/40/45 
f 17/17/17 38/38/42 42/42/48 
f 40/40/45 43/43/49 39/39/43 
f 28/28/31 1/1/1 3/3/3 
f 44/44/50 45/45/51 46/46/52 
f 8/8/8 31/31/34 9/9/9 
f 46/46/52 47/47/53 48/48/54 
f 41/41/46 49/49/55 43/43/49 
f 50/50/56 37/37/40 51/51/57 
f 52/52/58 46/46/52 45/45/51 
f 53/53/59 54/54/60 55/55/61 
f 56/56/62 38/38/63 49/49/55 
f 37/37/40 36/36/39 44/44/50 
f 50/50/56 57/57/64 49/49/55 
f 58/58/65 59/59/66 60/60/67 
f 29/29/32 61/61/68 28/28/31 
f 36/36/39 45/45/51 44/44/50 
f 51/51/57 48/48/54 62/62/69 
f 63/63/70 64/64/71 65/65/72 
f 66/66/73 62/62/69 67/67/74 
f 28/28/31 3/3/3 30/30/33 
f 23/23/26 32/32/35 24/24/27 
f 27/27/30 28/28/31 61/61/68 
f 44/44/50 46/46/52 48/48/54 
f 52/52/58 68/68/75 46/46/52 
f 7/7/7 18/18/20 17/17/25 
f 49/49/55 37/37/40 50/50/56 
f 19/19/44 15/15/15 14/14/14 
f 8/8/8 2/2/2 31/31/34 
f 47/47/53 68/68/75 69/69/76 
f 54/54/60 29/29/32 70/70/77 
f 26/26/29 27/27/30 61/61/68 
f 1/1/1 27/27/30 11/11/11 
f 57/57/64 24/24/27 56/56/62 
f 43/43/49 38/38/63 39/39/43 
f 64/64/71 63/63/70 69/69/76 
f 66/66/73 65/65/72 60/60/67 
f 37/37/40 44/44/50 51/51/57 
f 51/51/57 44/44/50 48/48/54 
f 29/29/32 30/30/33 70/70/77 
f 33/33/36 70/70/77 30/30/33 
f 41/41/46 40/40/45 35/35/38 
f 38/38/63 43/43/49 49/49/55 
f 47/47/53 46/46/52 68/68/75 
f 48/48/54 67/67/74 62/62/69 
f 49/49/55 41/41/46 37/37/40 
f 40/40/45 41/41/46 43/43/49 
f 57/57/64 56/56/62 49/49/55 
f 71/71/78 53/53/59 23/23/26 
f 66/66/73 63/63/70 65/65/72 
f 47/47/53 63/63/70 67/67/74 
f 71/71/78 23/23/26 25/25/28 
f 50/50/56 51/51/57 62/62/69 
f 63/63/70 47/47/53 69/69/76 
f 48/48/54 47/47/53 67/67/74 
f 59/59/66 66/66/73 60/60/67 
f 63/63/70 66/66/73 67/67/74 
f 66/66/73 59/59/66 62/62/69 
f 50/50/56 62/62/69 59/59/66 
f 33/33/36 55/55/61 70/70/77 
f 22/22/24 21/21/23 20/20/22 
f 59/59/66 72/72/79 50/50/56 
f 58/58/65 25/25/28 72/72/79 
f 23/23/26 53/53/59 55/55/61 
f 25/25/28 24/24/27 57/57/64 
f 72/72/79 25/25/28 57/57/64 
f 58/58/65 71/71/78 25/25/28 
f 50/50/56 72/72/79 57/57/64 
f 58/58/65 72/72/79 59/59/66 
f 70/70/77 55/55/61 54/54/60 
f 23/23/26 55/55/61 33/33/36 
f 22/22/24 20/20/22 7/7/7 
f 34/34/37 17/17/25 42/42/80 
f 24/24/27 32/32/35 34/34/37 
f 38/38/63 56/56/62 42/42/48 
f 42/42/48 56/56/62 34/34/37 
f 24/24/27 34/34/37 56/56/62 
f 21/21/23 32/32/35 33/33/36 
f 34/34/37 32/32/35 22/22/24 
f 33/33/36 30/30/33 21/21/23 
f 21/21/23 30/30/33 3/3/3 
f 8/8/8 7/7/7 20/20/22 
f 16/16/16 7/7/7 9/9/9 
s 2
f 73/1/81 74/3/82 75/2/83 
f 75/2/83 76/5/84 77/4/85 
f 77/4/85 76/5/84 78/6/86 
f 79/7/87 80/9/88 81/8/89 
f 82/10/90 75/2/83 74/3/82 
f 83/11/91 73/1/81 84/12/92 
f 85/13/93 86/15/94 87/14/95 
f 87/14/95 88/16/96 85/13/93 
f 89/17/97 85/13/98 90/18/99 
f 85/13/93 88/16/96 90/18/100 
f 89/17/97 91/19/101 85/13/98 
f 90/18/100 88/16/96 79/7/87 
f 82/10/90 92/21/102 93/20/103 
f 94/22/104 89/17/105 79/7/87 
f 77/4/85 84/12/92 73/1/81 
f 95/23/106 96/25/107 97/24/108 
f 77/4/85 73/1/81 75/2/83 
f 98/26/109 99/27/110 83/11/91 
f 100/28/111 73/1/81 99/27/110 
f 74/3/82 92/21/102 82/10/90 
f 101/29/112 102/30/113 100/28/111 
f 78/6/86 84/12/92 77/4/85 
f 76/5/84 75/2/83 103/31/114 
f 104/32/115 105/33/116 95/23/106 
f 94/22/104 106/34/117 89/17/105 
f 81/8/89 75/2/83 82/10/90 
f 92/21/102 104/32/115 94/22/104 
f 107/35/118 108/37/119 109/36/120 
f 91/19/101 86/15/121 85/13/98 
f 82/10/90 93/20/103 81/8/89 
f 91/19/101 89/17/97 110/38/122 
f 111/39/123 112/40/124 91/19/125 
f 107/35/118 113/41/126 108/37/119 
f 111/39/127 91/19/101 110/38/122 
f 91/19/125 112/40/124 87/14/95 
f 89/17/97 114/42/128 110/38/122 
f 112/40/124 111/39/123 115/43/129 
f 100/28/111 74/3/82 73/1/81 
f 116/44/130 117/46/131 118/45/132 
f 81/8/89 80/9/88 103/31/114 
f 117/46/131 119/48/133 120/47/134 
f 113/41/126 115/43/129 121/49/135 
f 122/50/136 123/51/137 108/37/119 
f 124/52/138 118/45/132 117/46/131 
f 125/53/139 126/55/140 127/54/141 
f 128/56/142 121/49/135 110/38/143 
f 108/37/119 116/44/130 109/36/120 
f 122/50/136 121/49/135 129/57/144 
f 130/58/145 131/60/146 132/59/147 
f 101/29/112 100/28/111 133/61/148 
f 109/36/120 116/44/130 118/45/132 
f 123/51/137 134/62/149 119/48/133 
f 135/63/150 136/65/151 137/64/152 
f 138/66/153 139/67/154 134/62/149 
f 100/28/111 102/30/113 74/3/82 
f 95/23/106 97/24/108 104/32/115 
f 99/27/110 133/61/148 100/28/111 
f 116/44/130 119/48/133 117/46/131 
f 124/52/138 117/46/131 140/68/155 
f 79/7/87 89/17/105 90/18/100 
f 121/49/135 122/50/136 108/37/119 
f 91/19/125 87/14/95 86/15/94 
f 81/8/89 103/31/114 75/2/83 
f 120/47/134 141/69/156 140/68/155 
f 127/54/141 142/70/157 101/29/112 
f 98/26/109 133/61/148 99/27/110 
f 73/1/81 83/11/91 99/27/110 
f 129/57/144 128/56/142 97/24/108 
f 115/43/129 111/39/123 110/38/143 
f 137/64/152 141/69/156 135/63/150 
f 138/66/153 131/60/146 136/65/151 
f 108/37/119 123/51/137 116/44/130 
f 123/51/137 119/48/133 116/44/130 
f 101/29/112 142/70/157 102/30/113 
f 105/33/116 102/30/113 142/70/157 
f 113/41/126 107/35/118 112/40/124 
f 110/38/143 121/49/135 115/43/129 
f 120/47/134 140/68/155 117/46/131 
f 119/48/133 134/62/149 139/67/154 
f 121/49/135 108/37/119 113/41/126 
f 112/40/124 115/43/129 113/41/126 
f 129/57/144 121/49/135 128/56/142 
f 143/71/158 95/23/106 125/53/139 
f 138/66/153 136/65/151 135/63/150 
f 120/47/134 139/67/154 135/63/150 
f 143/71/158 96/25/107 95/23/106 
f 122/50/136 134/62/149 123/51/137 
f 135/63/150 141/69/156 120/47/134 
f 119/48/133 139/67/154 120/47/134 
f 132/59/147 131/60/146 138/66/153 
f 135/63/150 139/67/154 138/66/153 
f 138/66/153 134/62/149 132/59/147 
f 122/50/136 132/59/147 134/62/149 
f 105/33/116 142/70/157 126/55/140 
f 94/22/104 93/20/103 92/21/102 
f 132/59/147 122/50/136 144/72/159 
f 130/58/145 144/72/159 96/25/107 
f 95/23/106 126/55/140 125/53/139 
f 96/25/107 129/57/144 97/24/108 
f 144/72/159 129/57/144 96/25/107 
f 130/58/145 96/25/107 143/71/158 
f 122/50/136 129/57/144 144/72/159 
f 130/58/145 132/59/147 144/72/159 
f 142/70/157 127/54/141 126/55/140 
f 95/23/106 105/33/116 126/55/140 
f 94/22/104 79/7/87 93/20/103 
f 106/34/117 114/42/160 89/17/105 
f 97/24/108 106/34/117 104/32/115 
f 110/38/143 114/42/128 128/56/142 
f 114/42/128 106/34/117 128/56/142 
f 97/24/108 128/56/142 106/34/117 
f 92/21/102 105/33/116 104/32/115 
f 106/34/117 94/22/104 104/32/115 
f 105/33/116 92/21/102 102/30/113 
f 92/21/102 74/3/82 102/30/113 
f 81/8/89 93/20/103 79/7/87 
f 88/16/96 80/9/88 79/7/87 
s 3
f 26/26/161 98/26/162 83/11/163 
f 26/26/161 83/11/163 11/11/164 
f 11/11/164 83/11/163 84/12/165 
f 11/11/164 84/12/165 12/12/166 
f 12/12/166 84/12/165 78/6/167 
f 12/12/166 78/6/167 6/6/168 
f 6/6/169 78/6/170 76/5/171 
f 6/6/169 76/5/171 5/5/172 
f 5/5/172 76/5/171 103/31/173 
f 5/5/172 103/31/173 31/31/174 
f 31/31/174 103/31/173 80/9/175 
f 31/31/174 80/9/175 9/9/176 
f 9/9/176 80/9/175 88/16/177 
f 9/9/176 88/16/177 16/16/178 
f 16/16/178 88/16/177 87/14/179 
f 16/16/178 87/14/179 14/14/180 
f 14/14/181 87/14/182 112/40/183 
f 14/14/181 112/40/183 40/40/184 
f 40/40/184 112/40/183 107/35/185 
f 40/40/184 107/35/185 35/35/186 
f 35/35/186 107/35/185 109/36/187 
f 35/35/186 109/36/187 36/36/188 
f 36/36/188 109/36/187 118/45/189 
f 36/36/188 118/45/189 45/45/190 
f 45/45/190 118/45/189 124/52/191 
f 45/45/190 124/52/191 52/52/192 
f 52/52/193 124/52/194 140/68/195 
f 52/52/193 140/68/195 68/68/196 
f 68/68/196 140/68/195 141/69/197 
f 68/68/196 141/69/197 69/69/198 
f 69/69/198 141/69/197 137/64/199 
f 69/69/198 137/64/199 64/64/200 
f 64/64/201 137/64/202 136/65/203 
f 64/64/201 136/65/203 65/65/204 
f 65/65/204 136/65/203 131/60/205 
f 65/65/204 131/60/205 60/60/206 
f 60/60/206 131/60/205 130/58/207 
f 60/60/206 130/58/207 58/58/208 
f 58/58/208 130/58/207 143/71/209 
f 58/58/208 143/71/209 71/71/210 
f 71/71/210 143/71/209 125/53/211 
f 71/71/210 125/53/211 53/53/212 
f 53/53/212 125/53/211 127/54/213 
f 53/53/212 127/54/213 54/54/214 
f 54/54/214 127/54/213 101/29/215 
f 54/54/214 101/29/215 29/29/216 
f 29/29/216 101/29/215 133/61/217 
f 29/29/216 133/61/217 61/61/218 
f 61/61/218 133/61/217 98/26/219 
f 61/61/218 98/26/219 26/26/220 
# 0 polygons - 284 triangles

